<?xml version="1.0" encoding="UTF-8" standalone="no"?>
<svg width="100" height="80" viewBox="0 0 100 80" xmlns="http://www.w3.org/2000/svg">
  <title>CE Mark (Conformité Européenne)</title>
  <desc>European Conformity Mark</desc>

  <!-- CE logo -->
  <g fill="#0046ad">
    <!-- C part -->
    <path d="M35,15 C21,15 10,30 10,40 C10,50 21,65 35,65 L40,65 L40,55 L35,55 C28,55 22,48 22,40 C22,32 28,25 35,25 L40,25 L40,15 L35,15 Z"/>

    <!-- E part -->
    <path d="M45,15 L45,65 L75,65 L75,55 L55,55 L55,45 L70,45 L70,35 L55,35 L55,25 L75,25 L75,15 L45,15 Z"/>
  </g>
</svg>
